<svg width="30" height="30" viewBox="0 0 30 30" fill="none" xmlns="http://www.w3.org/2000/svg">
<path d="M27.1047 15C27.1047 22.524 21.3063 28.5 14.3023 28.5C7.29832 28.5 1.5 22.524 1.5 15C1.5 7.47603 7.29832 1.5 14.3023 1.5C21.3063 1.5 27.1047 7.47603 27.1047 15Z" fill="#1D47DC" stroke="#1D47DC" stroke-width="3"/>
<path d="M16.3438 16.2045H7.84943V14.4077H16.3438C17.1278 14.4077 17.7758 14.2715 18.2876 13.9993C18.7995 13.7216 19.1806 13.3459 19.4311 12.8722C19.6816 12.393 19.8068 11.8485 19.8068 11.2386C19.8068 10.6288 19.6816 10.087 19.4311 9.61328C19.1806 9.13411 18.7995 8.7584 18.2876 8.48615C17.7758 8.20845 17.1278 8.0696 16.3438 8.0696H12.5213V23H10.4957V6.27273H16.3438C17.5852 6.27273 18.6089 6.4987 19.4148 6.95064C20.2206 7.40258 20.8196 8.00426 21.2116 8.75568C21.6037 9.5071 21.7997 10.3348 21.7997 11.2386C21.7997 12.1425 21.6037 12.9702 21.2116 13.7216C20.8196 14.473 20.2206 15.0747 19.4148 15.5266C18.6089 15.9786 17.5852 16.2045 16.3438 16.2045ZM16.2131 17.7727V19.5696H7.84943V17.7727H16.2131Z" fill="white"/>
</svg>
