<svg width="30" height="30" viewBox="0 0 30 30" fill="none" xmlns="http://www.w3.org/2000/svg">
<path d="M27.1047 15C27.1047 22.524 21.3063 28.5 14.3023 28.5C7.29832 28.5 1.5 22.524 1.5 15C1.5 7.47603 7.29832 1.5 14.3023 1.5C21.3063 1.5 27.1047 7.47603 27.1047 15Z" fill="#1D47DC" stroke="#1D47DC" stroke-width="3"/>
<path d="M12.652 18.8864V18.7798C12.6638 17.6494 12.7822 16.7498 13.0071 16.081C13.232 15.4122 13.5516 14.8706 13.9659 14.4563C14.3802 14.042 14.8774 13.6603 15.4574 13.3111C15.8066 13.098 16.1203 12.8465 16.3984 12.5565C16.6766 12.2605 16.8956 11.9202 17.0554 11.5355C17.2211 11.1508 17.304 10.7247 17.304 10.2571C17.304 9.67708 17.1679 9.17401 16.8956 8.74787C16.6233 8.32173 16.2594 7.99325 15.8036 7.76243C15.3479 7.5316 14.8419 7.41619 14.2855 7.41619C13.8002 7.41619 13.3326 7.51681 12.8828 7.71804C12.433 7.91927 12.0572 8.23591 11.7553 8.66797C11.4535 9.10002 11.2789 9.66525 11.2315 10.3636H8.99432C9.04167 9.35748 9.30208 8.49633 9.77557 7.78018C10.255 7.06404 10.8853 6.51657 11.6665 6.13778C12.4537 5.759 13.3267 5.5696 14.2855 5.5696C15.3272 5.5696 16.2327 5.77675 17.0021 6.19105C17.7775 6.60535 18.3752 7.17353 18.7955 7.8956C19.2216 8.61766 19.4347 9.44034 19.4347 10.3636C19.4347 11.0147 19.334 11.6036 19.1328 12.1303C18.9375 12.6571 18.6534 13.1276 18.2805 13.5419C17.9136 13.9562 17.4697 14.3232 16.9489 14.6428C16.428 14.9683 16.0108 15.3116 15.6971 15.6726C15.3834 16.0277 15.1555 16.4509 15.0135 16.9421C14.8714 17.4334 14.7945 18.0459 14.7827 18.7798V18.8864H12.652ZM13.7884 24.142C13.3504 24.142 12.9746 23.9852 12.6609 23.6715C12.3472 23.3578 12.1903 22.982 12.1903 22.544C12.1903 22.1061 12.3472 21.7302 12.6609 21.4165C12.9746 21.1029 13.3504 20.946 13.7884 20.946C14.2263 20.946 14.6022 21.1029 14.9158 21.4165C15.2295 21.7302 15.3864 22.1061 15.3864 22.544C15.3864 22.834 15.3124 23.1004 15.1644 23.343C15.0224 23.5857 14.83 23.781 14.5874 23.929C14.3506 24.071 14.0843 24.142 13.7884 24.142Z" fill="#C4C4C4"/>
</svg>
