<svg width="30" height="30" viewBox="0 0 30 30" fill="none" xmlns="http://www.w3.org/2000/svg">
<g style="mix-blend-mode:darken">
<path d="M0 15.2977C0 14.7681 0.21012 14.26 0.584256 13.8851L13.498 0.943289C13.6549 0.786115 13.8368 0.656154 14.0363 0.558739L14.3033 0.428413C14.857 0.158056 15.5045 0.158055 16.0582 0.428413L16.3128 0.552718C16.5204 0.654061 16.7088 0.790597 16.8698 0.956268L29.4345 13.8885C29.7971 14.2618 30 14.7617 30 15.2822V28C30 29.1046 29.1046 30 28 30H18.988C17.8834 30 16.988 29.1046 16.988 28V24.5882C16.988 23.4837 16.0925 22.5882 14.988 22.5882H14.6506C13.546 22.5882 12.6506 23.4837 12.6506 24.5882V28C12.6506 29.1046 11.7552 30 10.6506 30H2C0.895431 30 0 29.1046 0 28V15.2977Z" fill="#C4C4C4"/>
<path d="M17.4607 13.098C17.4607 13.7203 17.1663 14.4488 16.6739 15.0238C16.1824 15.5977 15.5235 15.9853 14.8191 15.9853C14.1147 15.9853 13.4558 15.5977 12.9643 15.0238C12.4719 14.4488 12.1775 13.7203 12.1775 13.098C12.1775 11.882 13.3258 10.8382 14.8191 10.8382C16.3124 10.8382 17.4607 11.882 17.4607 13.098Z" fill="white" stroke="white" stroke-width="0.5"/>
</g>
</svg>
